<svg width="295" height="295" viewBox="0 0 295 295" fill="none" xmlns="http://www.w3.org/2000/svg">
<g opacity="0.07">
<path d="M188.823 274.544C162.068 283.237 133.247 283.237 106.492 274.544C79.737 265.851 56.4208 248.91 39.8852 226.151C23.3496 203.392 14.4436 175.982 14.4436 147.85C14.4436 119.718 23.3496 92.3082 39.8852 69.5489C56.4207 46.7897 79.737 29.8494 106.492 21.1562C133.247 12.4629 162.068 12.4629 188.823 21.1562C215.578 29.8494 238.894 46.7897 255.43 69.5489C271.965 92.3082 280.871 119.718 280.871 147.85" stroke="#0D0F45" stroke-width="4"/>
<path d="M169.6 44.6177C191.401 49.2515 211.175 60.668 226.088 77.2308C241.001 93.7937 250.288 114.653 252.618 136.818C254.947 158.983 250.2 181.317 239.056 200.619C227.913 219.921 210.945 235.199 190.584 244.264C170.223 253.329 147.515 255.716 125.715 251.082C103.914 246.448 84.1404 235.032 69.2272 218.469C54.3139 201.906 45.0269 181.047 42.6972 158.882C40.3676 136.716 45.1148 114.382 56.2586 95.0806" stroke="#0D0F45" stroke-width="4"/>
<path d="M95.2576 206.046C82.9677 194.98 74.4965 180.308 71.0581 164.132C67.6198 147.955 69.3907 131.106 76.1172 115.998C82.8437 100.89 94.1803 88.2994 108.502 80.0306C122.824 71.7618 139.397 68.2393 155.844 69.9679C172.291 71.6966 187.768 78.5877 200.058 89.6535C212.348 100.719 220.819 115.392 224.258 131.568C227.696 147.744 225.925 164.594 219.198 179.702C212.472 194.81 201.135 207.4 186.813 215.669" stroke="#0D0F45" stroke-width="4"/>
</g>
</svg>
