<svg width="452" height="452" viewBox="0 0 452 452" fill="none" xmlns="http://www.w3.org/2000/svg">
<g opacity="0.1">
<path d="M289.711 421.587C248.389 435.013 203.876 435.013 162.554 421.587C121.231 408.16 85.2199 381.996 59.6811 346.845C34.1423 311.694 20.3872 269.36 20.3872 225.911C20.3872 182.462 34.1423 140.128 59.6811 104.977C85.2198 69.826 121.231 43.6622 162.554 30.2357C203.876 16.8091 248.389 16.8091 289.711 30.2357C331.034 43.6622 367.045 69.8259 392.584 104.977C418.123 140.128 431.878 182.462 431.878 225.911" stroke="#7BC0E3" stroke-width="4"/>
<path d="M260.069 66.2536C293.785 73.4202 324.367 91.0768 347.432 116.693C370.497 142.309 384.86 174.569 388.463 208.849C392.066 243.13 384.724 277.672 367.489 307.523C350.254 337.375 324.011 361.004 292.522 375.024C261.032 389.044 225.913 392.735 192.196 385.568C158.48 378.402 127.898 360.745 104.833 335.129C81.7687 309.513 67.4055 277.253 63.8025 242.973C60.1994 208.692 67.5414 174.15 84.7762 144.299" stroke="#7BC0E3" stroke-width="4"/>
<path d="M144.906 316.123C125.855 298.969 112.724 276.225 107.394 251.15C102.064 226.075 104.809 199.956 115.236 176.537C125.663 153.118 143.236 133.601 165.437 120.783C187.638 107.965 213.326 102.505 238.821 105.185C264.316 107.864 288.308 118.546 307.359 135.7C326.41 152.853 339.541 175.597 344.871 200.673C350.201 225.748 347.456 251.867 337.029 275.286C326.602 298.705 309.029 318.222 286.828 331.039" stroke="#7BC0E3" stroke-width="4"/>
</g>
</svg>
